<svg xmlns="http://www.w3.org/2000/svg" viewBox="0 0 100 100">
  <!-- Achtergrond voor maskable icon (safe zone = center 80%) -->
  <rect width="100" height="100" fill="#F5F0E8"/>
  <g fill="#C8583A">
    <path transform="translate(33,33) rotate(-45)"
          d="M -28,-24 A 14,14,0,0,0,0,-24 A 14,14,0,0,0,28,-24 Q 28,0 0,24 Q -28,0 -28,-24 Z"/>
    <path transform="translate(67,33) rotate(45)"
          d="M -28,-24 A 14,14,0,0,0,0,-24 A 14,14,0,0,0,28,-24 Q 28,0 0,24 Q -28,0 -28,-24 Z"/>
    <path transform="translate(33,67) rotate(225)"
          d="M -28,-24 A 14,14,0,0,0,0,-24 A 14,14,0,0,0,28,-24 Q 28,0 0,24 Q -28,0 -28,-24 Z"/>
    <path transform="translate(67,67) rotate(135)"
          d="M -28,-24 A 14,14,0,0,0,0,-24 A 14,14,0,0,0,28,-24 Q 28,0 0,24 Q -28,0 -28,-24 Z"/>
  </g>
</svg>
